# xmcd CD database file
#
# Track frame offsets:
#	150
#	12376
#	26963
#	39606
#	50976
#	63020
#	79190
#	90246
#	100940
#	116690
#	128849
#	141151
#	163772
#
# Disc length: 2469 seconds
#
# Revision: 0
# Processed by: cddbd v1.5PL3 Copyright (c) Steve Scherf et al.
# Submitted via: CDex 1.51
#
DISCID=af09a30d
DTITLE=Richard Zimmerman - Zimmerman's Greatest Hits
DYEAR=1900
DGENRE=Jazz
TTITLE0=That Texas Rag
TTITLE1=War Bride BLues
TTITLE2=Temptation Rag
TTITLE3=12th Street Rag
TTITLE4=Oh Those Blues
TTITLE5=The Entertainer
TTITLE6=Rats
TTITLE7=Beale Street Shimmie
TTITLE8=Some of These Days
TTITLE9=The Rattler
TTITLE10=Long Lost Blues
TTITLE11=Waiting For The Robert E Lee
TTITLE12=Data Track 13
EXTD=
EXTT0=
EXTT1=
EXTT2=
EXTT3=
EXTT4=
EXTT5=
EXTT6=
EXTT7=
EXTT8=
EXTT9=
EXTT10=
EXTT11=
EXTT12=
PLAYORDER=
